<mxfile host="app.diagrams.net" agent="Mozilla/5.0 (Macintosh; Intel Mac OS X 10_15_7) AppleWebKit/605.1.15 (KHTML, like Gecko) Version/18.4 Safari/605.1.15" version="27.0.3">
  <diagram name="Page-1" id="x2NGWJy3KI4mLx9V7Qw5">
    <mxGraphModel dx="936" dy="724" grid="1" gridSize="10" guides="1" tooltips="1" connect="1" arrows="1" fold="1" page="1" pageScale="1" pageWidth="850" pageHeight="1100" math="0" shadow="0">
      <root>
        <mxCell id="0" />
        <mxCell id="1" parent="0" />
        <mxCell id="cCED0pyMqO1lr4070Bgx-5" value="Movie" style="whiteSpace=wrap;html=1;align=center;" parent="1" vertex="1">
          <mxGeometry x="330" y="450" width="100" height="40" as="geometry" />
        </mxCell>
        <mxCell id="cCED0pyMqO1lr4070Bgx-6" value="Crew" style="whiteSpace=wrap;html=1;align=center;" parent="1" vertex="1">
          <mxGeometry x="570" y="300" width="100" height="40" as="geometry" />
        </mxCell>
        <mxCell id="cCED0pyMqO1lr4070Bgx-7" value="Casts" style="ellipse;shape=doubleEllipse;margin=3;whiteSpace=wrap;html=1;align=center;" parent="1" vertex="1">
          <mxGeometry x="570" y="217" width="100" height="40" as="geometry" />
        </mxCell>
        <mxCell id="cCED0pyMqO1lr4070Bgx-8" value="Directors" style="ellipse;shape=doubleEllipse;margin=3;whiteSpace=wrap;html=1;align=center;" parent="1" vertex="1">
          <mxGeometry x="660" y="250" width="100" height="40" as="geometry" />
        </mxCell>
        <mxCell id="cCED0pyMqO1lr4070Bgx-9" value="Writers" style="ellipse;shape=doubleEllipse;margin=3;whiteSpace=wrap;html=1;align=center;" parent="1" vertex="1">
          <mxGeometry x="480" y="250" width="100" height="40" as="geometry" />
        </mxCell>
        <mxCell id="cCED0pyMqO1lr4070Bgx-11" value="Id" style="ellipse;whiteSpace=wrap;html=1;align=center;fontStyle=4;" parent="1" vertex="1">
          <mxGeometry x="330" y="570" width="100" height="40" as="geometry" />
        </mxCell>
        <mxCell id="cCED0pyMqO1lr4070Bgx-12" value="Name" style="ellipse;whiteSpace=wrap;html=1;align=center;" parent="1" vertex="1">
          <mxGeometry x="230" y="350" width="100" height="40" as="geometry" />
        </mxCell>
        <mxCell id="cCED0pyMqO1lr4070Bgx-14" value="Rating" style="ellipse;whiteSpace=wrap;html=1;align=center;" parent="1" vertex="1">
          <mxGeometry x="230" y="540" width="100" height="40" as="geometry" />
        </mxCell>
        <mxCell id="cCED0pyMqO1lr4070Bgx-15" value="Genre" style="ellipse;shape=doubleEllipse;margin=3;whiteSpace=wrap;html=1;align=center;" parent="1" vertex="1">
          <mxGeometry x="489" y="495" width="100" height="40" as="geometry" />
        </mxCell>
        <mxCell id="cCED0pyMqO1lr4070Bgx-16" value="Certificate" style="ellipse;whiteSpace=wrap;html=1;align=center;" parent="1" vertex="1">
          <mxGeometry x="200" y="400" width="100" height="40" as="geometry" />
        </mxCell>
        <mxCell id="cCED0pyMqO1lr4070Bgx-17" value="Runtime" style="ellipse;whiteSpace=wrap;html=1;align=center;" parent="1" vertex="1">
          <mxGeometry x="170" y="490" width="100" height="40" as="geometry" />
        </mxCell>
        <mxCell id="cCED0pyMqO1lr4070Bgx-18" value="Tag Line" style="ellipse;whiteSpace=wrap;html=1;align=center;" parent="1" vertex="1">
          <mxGeometry x="430" y="560" width="100" height="40" as="geometry" />
        </mxCell>
        <mxCell id="cCED0pyMqO1lr4070Bgx-20" value="Budget" style="ellipse;whiteSpace=wrap;html=1;align=center;" parent="1" vertex="1">
          <mxGeometry x="470" y="400" width="100" height="40" as="geometry" />
        </mxCell>
        <mxCell id="cCED0pyMqO1lr4070Bgx-21" value="Box Office" style="ellipse;whiteSpace=wrap;html=1;align=center;" parent="1" vertex="1">
          <mxGeometry x="425" y="360" width="100" height="40" as="geometry" />
        </mxCell>
        <mxCell id="cCED0pyMqO1lr4070Bgx-22" value="Year" style="whiteSpace=wrap;html=1;align=center;" parent="1" vertex="1">
          <mxGeometry x="120" y="310" width="100" height="40" as="geometry" />
        </mxCell>
        <mxCell id="cCED0pyMqO1lr4070Bgx-23" value="CPI" style="ellipse;whiteSpace=wrap;html=1;align=center;" parent="1" vertex="1">
          <mxGeometry x="120" y="240" width="100" height="40" as="geometry" />
        </mxCell>
        <mxCell id="cCED0pyMqO1lr4070Bgx-24" value="Inflation rate" style="ellipse;whiteSpace=wrap;html=1;align=center;" parent="1" vertex="1">
          <mxGeometry x="230" y="260" width="100" height="40" as="geometry" />
        </mxCell>
        <mxCell id="cCED0pyMqO1lr4070Bgx-26" value="Year" style="ellipse;whiteSpace=wrap;html=1;align=center;fontStyle=4;" parent="1" vertex="1">
          <mxGeometry x="10" y="260" width="100" height="40" as="geometry" />
        </mxCell>
        <mxCell id="cCED0pyMqO1lr4070Bgx-28" value="" style="endArrow=none;html=1;rounded=0;exitX=1;exitY=0.5;exitDx=0;exitDy=0;entryX=0;entryY=0.5;entryDx=0;entryDy=0;" parent="1" source="cCED0pyMqO1lr4070Bgx-22" target="cCED0pyMqO1lr4070Bgx-24" edge="1">
          <mxGeometry relative="1" as="geometry">
            <mxPoint x="220" y="160" as="sourcePoint" />
            <mxPoint x="380" y="160" as="targetPoint" />
          </mxGeometry>
        </mxCell>
        <mxCell id="cCED0pyMqO1lr4070Bgx-29" value="" style="endArrow=none;html=1;rounded=0;exitX=0.5;exitY=0;exitDx=0;exitDy=0;entryX=0.5;entryY=1;entryDx=0;entryDy=0;" parent="1" source="cCED0pyMqO1lr4070Bgx-22" target="cCED0pyMqO1lr4070Bgx-23" edge="1">
          <mxGeometry relative="1" as="geometry">
            <mxPoint x="180" y="320" as="sourcePoint" />
            <mxPoint x="240" y="280" as="targetPoint" />
          </mxGeometry>
        </mxCell>
        <mxCell id="cCED0pyMqO1lr4070Bgx-30" value="" style="endArrow=none;html=1;rounded=0;exitX=1;exitY=0.5;exitDx=0;exitDy=0;entryX=0;entryY=0.5;entryDx=0;entryDy=0;" parent="1" source="cCED0pyMqO1lr4070Bgx-26" target="cCED0pyMqO1lr4070Bgx-22" edge="1">
          <mxGeometry relative="1" as="geometry">
            <mxPoint x="190" y="330" as="sourcePoint" />
            <mxPoint x="250" y="290" as="targetPoint" />
          </mxGeometry>
        </mxCell>
        <mxCell id="cCED0pyMqO1lr4070Bgx-31" value="Released In" style="shape=rhombus;perimeter=rhombusPerimeter;whiteSpace=wrap;html=1;align=center;" parent="1" vertex="1">
          <mxGeometry x="100" y="435" width="120" height="60" as="geometry" />
        </mxCell>
        <mxCell id="cCED0pyMqO1lr4070Bgx-32" value="" style="endArrow=none;html=1;rounded=0;exitX=0;exitY=0.5;exitDx=0;exitDy=0;entryX=1;entryY=0.5;entryDx=0;entryDy=0;" parent="1" source="cCED0pyMqO1lr4070Bgx-5" target="cCED0pyMqO1lr4070Bgx-31" edge="1">
          <mxGeometry relative="1" as="geometry">
            <mxPoint x="340" y="460" as="sourcePoint" />
            <mxPoint x="500" y="460" as="targetPoint" />
          </mxGeometry>
        </mxCell>
        <mxCell id="cCED0pyMqO1lr4070Bgx-33" value="" style="endArrow=none;html=1;rounded=0;exitX=0.5;exitY=0;exitDx=0;exitDy=0;entryX=0.43;entryY=0.95;entryDx=0;entryDy=0;entryPerimeter=0;" parent="1" source="cCED0pyMqO1lr4070Bgx-31" target="cCED0pyMqO1lr4070Bgx-22" edge="1">
          <mxGeometry relative="1" as="geometry">
            <mxPoint x="240" y="310" as="sourcePoint" />
            <mxPoint x="240" y="450" as="targetPoint" />
          </mxGeometry>
        </mxCell>
        <mxCell id="cCED0pyMqO1lr4070Bgx-34" value="1" style="text;html=1;align=center;verticalAlign=middle;resizable=0;points=[];autosize=1;strokeColor=none;fillColor=none;" parent="1" vertex="1">
          <mxGeometry x="135" y="350" width="30" height="30" as="geometry" />
        </mxCell>
        <mxCell id="cCED0pyMqO1lr4070Bgx-35" value="n" style="text;html=1;align=center;verticalAlign=middle;resizable=0;points=[];autosize=1;strokeColor=none;fillColor=none;" parent="1" vertex="1">
          <mxGeometry x="300" y="445" width="30" height="30" as="geometry" />
        </mxCell>
        <mxCell id="cCED0pyMqO1lr4070Bgx-36" value="" style="endArrow=none;html=1;rounded=0;exitX=0.25;exitY=1;exitDx=0;exitDy=0;entryX=0.5;entryY=0;entryDx=0;entryDy=0;" parent="1" source="cCED0pyMqO1lr4070Bgx-5" target="cCED0pyMqO1lr4070Bgx-14" edge="1">
          <mxGeometry relative="1" as="geometry">
            <mxPoint x="390" y="500" as="sourcePoint" />
            <mxPoint x="390" y="640" as="targetPoint" />
          </mxGeometry>
        </mxCell>
        <mxCell id="cCED0pyMqO1lr4070Bgx-37" value="" style="endArrow=none;html=1;rounded=0;exitX=0;exitY=1;exitDx=0;exitDy=0;entryX=1;entryY=0.5;entryDx=0;entryDy=0;" parent="1" source="cCED0pyMqO1lr4070Bgx-5" target="cCED0pyMqO1lr4070Bgx-17" edge="1">
          <mxGeometry relative="1" as="geometry">
            <mxPoint x="400" y="510" as="sourcePoint" />
            <mxPoint x="400" y="650" as="targetPoint" />
          </mxGeometry>
        </mxCell>
        <mxCell id="cCED0pyMqO1lr4070Bgx-38" value="" style="endArrow=none;html=1;rounded=0;exitX=0.5;exitY=1;exitDx=0;exitDy=0;entryX=0.5;entryY=0;entryDx=0;entryDy=0;" parent="1" source="cCED0pyMqO1lr4070Bgx-12" target="cCED0pyMqO1lr4070Bgx-5" edge="1">
          <mxGeometry relative="1" as="geometry">
            <mxPoint x="410" y="520" as="sourcePoint" />
            <mxPoint x="410" y="660" as="targetPoint" />
          </mxGeometry>
        </mxCell>
        <mxCell id="cCED0pyMqO1lr4070Bgx-39" value="" style="endArrow=none;html=1;rounded=0;exitX=0.5;exitY=0;exitDx=0;exitDy=0;entryX=0.5;entryY=1;entryDx=0;entryDy=0;" parent="1" source="cCED0pyMqO1lr4070Bgx-11" target="cCED0pyMqO1lr4070Bgx-5" edge="1">
          <mxGeometry relative="1" as="geometry">
            <mxPoint x="280" y="480" as="sourcePoint" />
            <mxPoint x="330" y="470" as="targetPoint" />
          </mxGeometry>
        </mxCell>
        <mxCell id="cCED0pyMqO1lr4070Bgx-40" value="" style="endArrow=none;html=1;rounded=0;exitX=0.25;exitY=0;exitDx=0;exitDy=0;entryX=0.5;entryY=1;entryDx=0;entryDy=0;" parent="1" source="cCED0pyMqO1lr4070Bgx-5" target="cCED0pyMqO1lr4070Bgx-16" edge="1">
          <mxGeometry relative="1" as="geometry">
            <mxPoint x="430" y="540" as="sourcePoint" />
            <mxPoint x="430" y="680" as="targetPoint" />
          </mxGeometry>
        </mxCell>
        <mxCell id="cCED0pyMqO1lr4070Bgx-41" value="" style="endArrow=none;html=1;rounded=0;exitX=0.5;exitY=0;exitDx=0;exitDy=0;entryX=0.5;entryY=1;entryDx=0;entryDy=0;" parent="1" source="cCED0pyMqO1lr4070Bgx-5" target="cCED0pyMqO1lr4070Bgx-21" edge="1">
          <mxGeometry relative="1" as="geometry">
            <mxPoint x="430" y="470" as="sourcePoint" />
            <mxPoint x="440" y="360" as="targetPoint" />
          </mxGeometry>
        </mxCell>
        <mxCell id="cCED0pyMqO1lr4070Bgx-42" value="" style="endArrow=none;html=1;rounded=0;exitX=0.75;exitY=1;exitDx=0;exitDy=0;entryX=0.5;entryY=0;entryDx=0;entryDy=0;" parent="1" source="cCED0pyMqO1lr4070Bgx-5" target="cCED0pyMqO1lr4070Bgx-18" edge="1">
          <mxGeometry relative="1" as="geometry">
            <mxPoint x="450" y="560" as="sourcePoint" />
            <mxPoint x="450" y="700" as="targetPoint" />
          </mxGeometry>
        </mxCell>
        <mxCell id="cCED0pyMqO1lr4070Bgx-43" value="" style="endArrow=none;html=1;rounded=0;exitX=1;exitY=1;exitDx=0;exitDy=0;entryX=0.02;entryY=0.325;entryDx=0;entryDy=0;entryPerimeter=0;" parent="1" source="cCED0pyMqO1lr4070Bgx-5" target="cCED0pyMqO1lr4070Bgx-15" edge="1">
          <mxGeometry relative="1" as="geometry">
            <mxPoint x="460" y="570" as="sourcePoint" />
            <mxPoint x="460" y="710" as="targetPoint" />
          </mxGeometry>
        </mxCell>
        <mxCell id="cCED0pyMqO1lr4070Bgx-44" value="Participate" style="shape=rhombus;perimeter=rhombusPerimeter;whiteSpace=wrap;html=1;align=center;" parent="1" vertex="1">
          <mxGeometry x="560" y="440" width="120" height="60" as="geometry" />
        </mxCell>
        <mxCell id="cCED0pyMqO1lr4070Bgx-45" value="" style="endArrow=none;html=1;rounded=0;exitX=1;exitY=0.5;exitDx=0;exitDy=0;entryX=0;entryY=0.5;entryDx=0;entryDy=0;" parent="1" source="cCED0pyMqO1lr4070Bgx-5" target="cCED0pyMqO1lr4070Bgx-44" edge="1">
          <mxGeometry relative="1" as="geometry">
            <mxPoint x="470" y="580" as="sourcePoint" />
            <mxPoint x="570" y="470" as="targetPoint" />
          </mxGeometry>
        </mxCell>
        <mxCell id="cCED0pyMqO1lr4070Bgx-46" value="" style="endArrow=none;html=1;rounded=0;exitX=0.5;exitY=0;exitDx=0;exitDy=0;" parent="1" source="cCED0pyMqO1lr4070Bgx-44" target="cCED0pyMqO1lr4070Bgx-6" edge="1">
          <mxGeometry relative="1" as="geometry">
            <mxPoint x="330" y="400" as="sourcePoint" />
            <mxPoint x="330" y="540" as="targetPoint" />
          </mxGeometry>
        </mxCell>
        <mxCell id="cCED0pyMqO1lr4070Bgx-47" value="m" style="text;html=1;align=center;verticalAlign=middle;resizable=0;points=[];autosize=1;strokeColor=none;fillColor=none;" parent="1" vertex="1">
          <mxGeometry x="424" y="450" width="30" height="30" as="geometry" />
        </mxCell>
        <mxCell id="cCED0pyMqO1lr4070Bgx-48" value="n" style="text;html=1;align=center;verticalAlign=middle;resizable=0;points=[];autosize=1;strokeColor=none;fillColor=none;" parent="1" vertex="1">
          <mxGeometry x="615" y="335" width="30" height="30" as="geometry" />
        </mxCell>
        <mxCell id="cCED0pyMqO1lr4070Bgx-49" value="" style="endArrow=none;html=1;rounded=0;exitX=0.75;exitY=0;exitDx=0;exitDy=0;entryX=0.5;entryY=1;entryDx=0;entryDy=0;" parent="1" source="cCED0pyMqO1lr4070Bgx-5" target="cCED0pyMqO1lr4070Bgx-20" edge="1">
          <mxGeometry relative="1" as="geometry">
            <mxPoint x="415" y="460" as="sourcePoint" />
            <mxPoint x="476" y="435" as="targetPoint" />
          </mxGeometry>
        </mxCell>
        <mxCell id="cCED0pyMqO1lr4070Bgx-52" value="" style="endArrow=none;html=1;rounded=0;exitX=1;exitY=0.5;exitDx=0;exitDy=0;entryX=0.5;entryY=1;entryDx=0;entryDy=0;" parent="1" source="cCED0pyMqO1lr4070Bgx-6" target="cCED0pyMqO1lr4070Bgx-8" edge="1">
          <mxGeometry relative="1" as="geometry">
            <mxPoint x="275" y="280" as="sourcePoint" />
            <mxPoint x="325" y="194" as="targetPoint" />
          </mxGeometry>
        </mxCell>
        <mxCell id="cCED0pyMqO1lr4070Bgx-53" value="" style="endArrow=none;html=1;rounded=0;exitX=0.5;exitY=0;exitDx=0;exitDy=0;entryX=0.5;entryY=1;entryDx=0;entryDy=0;" parent="1" source="cCED0pyMqO1lr4070Bgx-6" target="cCED0pyMqO1lr4070Bgx-7" edge="1">
          <mxGeometry relative="1" as="geometry">
            <mxPoint x="285" y="290" as="sourcePoint" />
            <mxPoint x="335" y="204" as="targetPoint" />
          </mxGeometry>
        </mxCell>
        <mxCell id="cCED0pyMqO1lr4070Bgx-54" value="" style="endArrow=none;html=1;rounded=0;exitX=0.58;exitY=1.05;exitDx=0;exitDy=0;exitPerimeter=0;entryX=0;entryY=0.5;entryDx=0;entryDy=0;" parent="1" source="cCED0pyMqO1lr4070Bgx-9" target="cCED0pyMqO1lr4070Bgx-6" edge="1">
          <mxGeometry relative="1" as="geometry">
            <mxPoint x="295" y="300" as="sourcePoint" />
            <mxPoint x="610" y="330" as="targetPoint" />
          </mxGeometry>
        </mxCell>
        <mxCell id="cCED0pyMqO1lr4070Bgx-57" style="edgeStyle=orthogonalEdgeStyle;rounded=0;orthogonalLoop=1;jettySize=auto;html=1;exitX=0.5;exitY=1;exitDx=0;exitDy=0;" parent="1" source="cCED0pyMqO1lr4070Bgx-11" target="cCED0pyMqO1lr4070Bgx-11" edge="1">
          <mxGeometry relative="1" as="geometry" />
        </mxCell>
        <mxCell id="cvhGGUAqZHAAezO4FPbw-1" value="Rank" style="ellipse;whiteSpace=wrap;html=1;align=center;" vertex="1" parent="1">
          <mxGeometry x="330" y="340" width="100" height="40" as="geometry" />
        </mxCell>
        <mxCell id="cvhGGUAqZHAAezO4FPbw-2" value="" style="endArrow=none;html=1;rounded=0;exitX=0.5;exitY=1;exitDx=0;exitDy=0;entryX=0.5;entryY=0;entryDx=0;entryDy=0;" edge="1" parent="1" source="cvhGGUAqZHAAezO4FPbw-1" target="cCED0pyMqO1lr4070Bgx-5">
          <mxGeometry relative="1" as="geometry">
            <mxPoint x="484" y="490" as="sourcePoint" />
            <mxPoint x="454" y="420" as="targetPoint" />
          </mxGeometry>
        </mxCell>
      </root>
    </mxGraphModel>
  </diagram>
</mxfile>
